<?xml version="1.0" standalone="no"?>
<!DOCTYPE svg PUBLIC "-//W3C//DTD SVG 20010904//EN"
 "http://www.w3.org/TR/2001/REC-SVG-20010904/DTD/svg10.dtd">
<svg version="1.0" xmlns="http://www.w3.org/2000/svg"
 width="2500.000000pt" height="628.000000pt" viewBox="0 0 2500.000000 628.000000"
 preserveAspectRatio="xMidYMid meet">

<g transform="translate(0.000000,628.000000) scale(0.100000,-0.100000)"
fill="#000000" stroke="none">
<path d="M2133 6250 c-809 -79 -1488 -542 -1849 -1261 -158 -313 -228 -613
-228 -969 0 -398 68 -643 319 -1147 282 -567 436 -790 1508 -2185 235 -306
437 -560 448 -563 13 -4 28 0 41 11 46 42 1120 1440 1305 1699 488 684 804
1298 919 1790 27 114 29 132 28 355 0 177 -4 263 -18 350 -77 489 -290 905
-645 1261 -357 358 -776 567 -1286 644 -123 19 -418 27 -542 15z m601 -922
c-14 -46 -91 -301 -173 -568 -81 -267 -146 -488 -144 -492 2 -5 263 -8 579 -8
479 0 574 -2 574 -14 0 -7 -381 -458 -846 -1002 -917 -1073 -871 -1020 -878
-1013 -3 2 87 285 200 629 112 344 202 631 199 639 -4 11 -95 12 -550 6 -330
-5 -545 -4 -545 2 0 5 325 398 721 873 895 1073 868 1042 878 1035 5 -2 -2
-42 -15 -87z"/>
<path d="M11923 4340 c-200 -52 -314 -165 -373 -370 -18 -60 -23 -113 -29
-265 l-6 -190 -132 -3 -133 -3 0 -139 0 -140 135 0 135 0 0 -830 0 -830 160 0
160 0 0 830 0 830 255 0 255 0 0 140 0 140 -252 2 -253 3 -3 65 c-5 90 14 239
38 303 48 129 173 186 408 187 l72 0 0 145 0 145 -182 -1 c-146 0 -198 -4
-255 -19z"/>
<path d="M7370 3825 c0 -278 -2 -505 -5 -505 -2 0 -23 18 -47 40 -93 87 -217
154 -353 191 -107 29 -344 32 -450 6 -192 -48 -335 -166 -424 -348 -90 -187
-123 -357 -123 -654 -1 -278 33 -469 111 -630 93 -194 227 -307 431 -362 101
-28 396 -25 505 5 134 37 220 85 309 174 43 43 80 77 81 76 1 -2 10 -52 20
-113 9 -60 19 -115 22 -122 4 -10 40 -13 144 -13 126 0 139 2 139 18 0 9 -9
139 -20 287 -18 244 -20 374 -20 1363 l0 1092 -160 0 -160 0 0 -505z m-410
-557 c121 -23 246 -95 344 -199 l66 -69 0 -438 0 -437 -45 -57 c-121 -155
-285 -228 -512 -228 -215 0 -349 73 -432 238 -72 143 -104 372 -83 605 14 162
32 238 82 343 102 212 300 295 580 242z"/>
<path d="M12958 4142 l-138 -25 -2 -286 -3 -286 -127 -3 -128 -3 0 -139 0
-140 129 0 130 0 4 -607 c3 -585 4 -611 25 -691 28 -107 63 -173 123 -237 104
-110 236 -152 507 -162 l172 -6 0 151 0 152 -77 0 c-291 1 -395 81 -423 328
-5 48 -10 309 -10 579 l0 493 248 2 247 3 3 138 3 137 -251 0 -250 0 0 315 0
315 -22 -1 c-13 -1 -85 -13 -160 -27z"/>
<path d="M14478 3579 c-394 -42 -608 -233 -608 -544 0 -241 123 -401 376 -489
93 -33 199 -59 389 -96 271 -54 385 -93 456 -157 52 -47 78 -103 79 -169 1
-210 -159 -314 -482 -314 -201 0 -323 37 -418 126 -62 58 -99 131 -108 215
l-7 64 -164 3 -164 3 7 -73 c16 -175 67 -290 176 -398 154 -155 356 -220 684
-220 324 0 541 65 671 201 94 98 135 211 135 370 0 159 -39 259 -139 360 -117
118 -251 170 -631 248 -302 62 -374 85 -457 148 -96 73 -97 245 -3 342 81 83
185 114 385 115 307 1 449 -96 472 -321 l6 -53 160 0 160 0 -6 78 c-25 330
-243 521 -638 562 -114 11 -218 11 -331 -1z"/>
<path d="M16475 3579 c-349 -33 -567 -197 -671 -501 -100 -294 -90 -836 20
-1107 55 -137 162 -263 278 -329 73 -42 216 -88 316 -103 126 -18 414 -7 522
20 139 35 242 92 335 186 158 158 227 363 241 720 14 334 -43 629 -155 801
-54 84 -164 182 -253 226 -164 81 -386 111 -633 87z m330 -284 c250 -66 357
-258 372 -670 14 -418 -68 -664 -254 -759 -94 -47 -158 -60 -298 -60 -218 0
-353 57 -438 187 -75 114 -105 242 -114 483 -16 445 71 687 281 785 35 16 83
33 107 38 76 15 279 12 344 -4z"/>
<path d="M8940 3564 c-211 -45 -381 -160 -471 -319 l-33 -59 -7 33 c-4 19 -15
99 -25 178 l-18 143 -144 0 -143 0 6 -67 c28 -322 35 -560 35 -1210 l0 -693
160 0 160 0 0 586 0 585 26 77 c90 268 293 428 582 457 l72 7 0 149 0 149 -67
-1 c-38 0 -97 -7 -133 -15z"/>
<path d="M10005 3570 c-281 -28 -480 -140 -569 -321 -40 -81 -66 -185 -66
-266 l0 -53 149 0 148 0 7 58 c17 148 107 245 276 297 126 38 393 29 502 -17
71 -30 132 -101 158 -184 19 -64 50 -317 39 -328 -2 -3 -31 -1 -64 5 -33 5
-186 12 -341 15 -370 9 -485 -7 -654 -88 -151 -73 -248 -199 -285 -373 -19
-89 -19 -270 0 -357 47 -222 195 -359 443 -410 132 -27 386 -22 507 11 144 38
275 111 371 203 l51 50 17 -99 c10 -54 20 -106 22 -115 5 -16 21 -18 153 -18
l149 0 -4 43 c-2 23 -9 92 -15 152 -6 61 -14 349 -19 640 -9 566 -17 660 -63
787 -73 202 -218 309 -476 352 -112 20 -322 27 -436 16z m385 -1060 c96 -5
194 -13 218 -16 l42 -6 0 -172 c0 -164 -1 -174 -26 -223 -33 -68 -142 -170
-224 -210 -247 -121 -562 -104 -694 37 -55 59 -76 124 -76 236 0 107 24 175
82 231 92 88 196 117 478 131 14 1 104 -3 200 -8z"/>
<path d="M20820 3573 c-217 -36 -420 -166 -510 -326 -18 -32 -34 -56 -36 -55
-1 2 -13 81 -25 176 l-22 172 -144 0 -143 0 5 -52 c26 -260 35 -565 35 -1217
l0 -701 163 2 162 3 5 616 5 616 49 99 c41 82 63 113 130 179 118 117 239 173
419 191 l67 6 0 149 0 149 -67 -1 c-38 -1 -79 -4 -93 -6z"/>
<path d="M21776 3565 c-306 -58 -487 -218 -580 -515 -73 -232 -85 -630 -26
-901 88 -408 331 -598 785 -616 475 -18 770 147 864 485 11 40 23 104 27 142
l7 70 -165 0 -165 0 -6 -57 c-8 -88 -42 -166 -98 -228 -90 -97 -211 -139 -409
-139 -91 0 -141 5 -185 18 -210 63 -312 210 -346 505 -15 122 -6 463 15 552
57 249 174 380 373 419 94 19 293 9 368 -19 88 -31 159 -84 205 -153 48 -72
69 -137 77 -235 l6 -73 165 0 165 0 -7 86 c-29 356 -211 574 -545 651 -97 22
-422 27 -525 8z"/>
<path d="M23808 3565 c-358 -68 -550 -278 -625 -685 -25 -135 -25 -525 0 -660
22 -120 74 -272 118 -347 56 -96 170 -202 269 -250 130 -65 223 -84 431 -90
307 -9 510 42 677 171 125 96 222 282 222 423 l0 43 -160 0 -160 0 -6 -27
c-22 -100 -51 -151 -119 -211 -95 -84 -223 -122 -407 -122 -64 0 -140 7 -176
15 -228 54 -344 227 -370 553 l-8 92 715 0 714 0 -7 138 c-13 264 -52 446
-128 602 -33 67 -58 102 -122 166 -94 93 -179 140 -316 175 -112 28 -424 36
-542 14z m352 -255 c93 -15 198 -69 254 -131 76 -84 132 -226 151 -382 l7 -57
-533 2 -534 3 3 45 c6 78 41 211 75 279 40 82 117 160 193 196 101 48 251 65
384 45z"/>
<path d="M17820 2868 c0 -717 4 -792 51 -938 76 -239 223 -352 490 -380 338
-34 669 101 807 329 26 43 25 46 53 -151 l23 -158 143 0 143 0 -5 53 c-27 266
-35 548 -35 1209 l0 708 -165 0 -165 0 0 -657 0 -658 -39 -60 c-57 -89 -124
-159 -207 -214 -90 -61 -180 -90 -296 -98 -250 -17 -403 86 -455 306 -14 56
-17 167 -20 724 l-4 657 -160 0 -159 0 0 -672z"/>
</g>
</svg>
